<?xml version="1.0" standalone="no"?>
<!DOCTYPE svg PUBLIC "-//W3C//DTD SVG 20010904//EN"
 "http://www.w3.org/TR/2001/REC-SVG-20010904/DTD/svg10.dtd">
<svg version="1.0" xmlns="http://www.w3.org/2000/svg"
 width="2048.000000pt" height="2048.000000pt" viewBox="0 0 2048.000000 2048.000000"
 preserveAspectRatio="xMidYMid meet">
<metadata>
Created by potrace 1.14, written by Peter Selinger 2001-2017
</metadata>
<g transform="translate(0.000000,2048.000000) scale(0.100000,-0.100000)"
fill="#000000" stroke="none">
<path d="M3549 17933 c-9 -2 -22 -16 -30 -31 -20 -40 -28 -42 -73 -24 -58 24
-151 21 -201 -5 -57 -30 -98 -81 -90 -113 3 -14 10 -58 15 -99 5 -40 18 -100
30 -132 14 -43 20 -84 20 -150 l0 -92 44 -44 c25 -25 50 -59 56 -78 8 -24 31
-46 93 -89 45 -31 91 -56 102 -56 11 0 35 -9 53 -20 39 -24 65 -25 96 -4 17
10 42 14 83 12 51 -3 58 -6 61 -25 4 -29 -23 -42 -107 -54 -69 -9 -186 -61
-205 -91 -13 -21 30 -79 83 -113 44 -27 67 -75 76 -157 4 -29 13 -71 22 -93 9
-24 12 -55 9 -80 -4 -24 0 -62 10 -95 25 -87 35 -181 23 -217 -10 -31 -15 -35
-71 -47 l-28 -6 -2 -168 c-3 -216 -2 -227 18 -258 22 -32 45 -271 32 -324 -4
-19 -7 -240 -7 -491 l2 -456 -23 -46 c-22 -45 -23 -52 -17 -249 3 -112 10
-216 16 -231 8 -20 8 -40 1 -66 -10 -40 -14 -158 -7 -261 2 -36 0 -91 -5 -124
-7 -45 -5 -69 7 -105 12 -37 16 -110 20 -337 2 -159 9 -314 15 -344 6 -33 8
-98 4 -165 -5 -92 -4 -117 11 -150 12 -30 17 -76 20 -178 l3 -137 -27 -21
c-14 -11 -36 -28 -48 -37 -22 -17 -94 -178 -118 -264 -7 -25 -20 -57 -28 -70
-9 -12 -19 -50 -22 -83 -4 -33 -12 -69 -19 -80 -6 -11 -11 -51 -12 -90 0 -50
-10 -96 -32 -160 -17 -49 -34 -106 -37 -125 -4 -19 -14 -45 -22 -58 -8 -13
-18 -48 -23 -79 -5 -31 -17 -64 -26 -74 -9 -11 -19 -45 -23 -81 -4 -35 -15
-77 -24 -95 -9 -18 -17 -48 -17 -68 0 -20 -7 -52 -16 -73 -8 -20 -19 -57 -23
-82 -14 -80 -52 -204 -71 -235 -40 -65 -88 -164 -95 -196 -4 -19 -16 -50 -26
-69 -11 -19 -19 -42 -19 -50 0 -8 -7 -28 -15 -44 -19 -36 -149 -428 -181 -546
-3 -14 -10 -29 -14 -35 -4 -5 -18 -46 -29 -90 -12 -43 -26 -84 -31 -90 -5 -6
-14 -44 -21 -85 -6 -40 -17 -91 -25 -113 -8 -22 -14 -55 -14 -74 0 -43 -67
-240 -105 -308 -79 -143 -116 -220 -113 -239 4 -28 43 -46 104 -46 27 0 59 -6
69 -14 18 -13 18 -14 -3 -41 -12 -15 -22 -33 -22 -39 0 -6 -11 -33 -25 -60
-45 -88 -26 -157 48 -177 23 -6 60 -18 82 -26 85 -31 227 -43 382 -33 79 5
148 12 152 14 3 2 69 12 146 20 77 9 167 23 200 30 33 8 107 17 165 20 182 12
313 26 365 41 28 7 73 16 100 20 28 3 78 11 113 17 l63 10 65 -62 64 -62 131
4 131 3 25 30 c13 17 28 40 33 52 9 21 -1 123 -32 343 -5 41 -12 98 -13 125
-21 320 -35 459 -53 525 -14 53 -17 80 -10 93 6 12 6 28 0 45 -6 15 -18 68
-27 117 -9 50 -20 110 -25 135 -5 25 -12 82 -15 126 -6 81 -6 82 25 118 18 20
40 36 49 36 34 0 64 35 106 125 24 51 63 119 87 151 46 61 148 144 178 144 55
0 237 -122 286 -192 35 -50 79 -142 88 -184 6 -32 20 -233 20 -304 0 -64 -22
-197 -41 -249 -11 -32 -13 -56 -8 -95 9 -59 9 -55 -3 -367 -4 -129 -12 -241
-16 -247 -4 -7 -2 -54 4 -105 16 -123 19 -209 9 -282 -5 -33 -6 -90 -2 -127 6
-65 9 -72 63 -139 12 -16 31 -19 103 -21 84 -3 90 -2 107 22 38 51 49 58 106
69 33 6 100 22 149 36 50 14 128 34 175 44 l85 18 28 -23 c28 -24 31 -24 263
-24 230 0 394 -11 464 -31 42 -12 452 -25 503 -15 26 5 41 15 55 39 18 32 23
34 126 51 115 18 205 16 308 -10 32 -8 134 -17 230 -20 l173 -5 33 30 c24 23
34 43 39 76 3 25 11 49 17 54 6 5 36 11 66 14 30 3 76 9 101 13 45 6 46 5 87
-41 23 -26 42 -52 42 -58 0 -6 43 -8 123 -4 101 5 143 12 247 43 69 21 140 38
159 38 33 1 35 -1 46 -49 20 -88 64 -150 117 -166 37 -10 164 -12 220 -3 31 5
43 15 69 55 l31 49 -16 92 c-8 51 -20 154 -26 228 -6 74 -15 171 -20 215 -6
44 -14 150 -19 235 -5 85 -15 169 -22 185 -6 17 -13 59 -14 95 -1 36 -7 88
-14 115 -18 79 -30 176 -36 293 -6 124 6 156 70 188 31 16 47 37 92 123 104
199 180 271 283 271 46 0 63 -6 116 -41 108 -70 219 -213 238 -307 7 -31 19
-234 20 -307 0 -66 -21 -212 -36 -250 -7 -16 -11 -54 -9 -85 4 -65 4 -84 -2
-433 -3 -220 -1 -272 11 -295 8 -15 18 -70 22 -122 5 -52 17 -115 26 -140 17
-43 24 -212 13 -280 -4 -25 -4 -25 85 -28 103 -3 106 -1 106 74 0 27 6 59 14
69 12 17 18 18 87 6 41 -7 97 -19 124 -27 40 -11 70 -11 155 -2 176 18 657 20
785 2 215 -30 538 -43 620 -25 27 6 31 11 38 59 10 63 17 67 135 89 137 25
165 23 367 -37 152 -44 182 -50 262 -50 81 0 82 0 107 33 17 22 26 47 26 69 0
45 12 54 78 61 85 10 122 -20 122 -97 0 -17 6 -39 13 -48 31 -40 143 -46 209
-12 14 7 48 21 75 30 26 9 93 38 148 65 138 67 165 69 189 9 10 -25 16 -70 16
-117 0 -69 3 -83 32 -130 18 -29 43 -56 57 -62 83 -31 262 -19 293 21 44 54
49 75 38 140 -5 35 -16 106 -25 158 -8 52 -17 173 -20 268 -3 95 -9 181 -14
190 -4 9 -11 64 -14 122 -3 58 -13 127 -21 154 -9 27 -16 72 -17 100 0 55 -5
85 -38 242 -12 56 -24 141 -27 189 -5 82 -4 89 18 112 13 14 39 33 58 43 48
24 60 41 114 145 84 162 186 265 261 264 29 0 47 -9 179 -87 76 -46 129 -111
168 -207 29 -73 33 -94 40 -235 9 -161 -1 -282 -28 -370 -10 -31 -14 -85 -12
-160 1 -63 -1 -232 -4 -375 -4 -237 -3 -264 14 -308 10 -27 23 -90 28 -140 6
-51 17 -110 25 -132 16 -46 20 -210 5 -249 -8 -21 -6 -27 10 -36 23 -12 150
-13 169 -1 10 7 15 33 15 95 1 89 17 126 49 113 22 -8 40 -99 33 -160 -8 -63
-1 -87 26 -87 39 0 164 44 213 75 28 18 82 51 121 74 l71 41 69 -10 c38 -5
106 -10 150 -10 48 0 100 -6 125 -16 38 -13 53 -13 109 -2 84 16 216 13 309
-7 93 -19 494 -25 528 -6 18 9 23 22 25 69 3 57 3 57 36 60 19 2 56 -4 82 -14
52 -19 56 -18 155 20 23 9 73 15 120 15 98 1 256 25 350 54 58 18 96 21 228
22 133 1 160 3 174 18 16 16 15 18 -6 41 -29 31 -81 141 -81 172 0 14 7 41 15
60 13 33 13 39 -5 74 -11 22 -20 44 -20 49 0 15 -58 108 -102 165 -21 27 -41
61 -44 75 -8 38 -36 101 -60 137 -12 17 -29 55 -39 85 -10 30 -24 63 -31 74
-6 11 -15 36 -19 55 -10 48 -64 203 -76 214 -5 6 -9 20 -9 33 0 13 -11 49 -24
81 -13 31 -27 83 -31 114 -4 32 -13 62 -21 69 -7 6 -16 27 -20 48 -4 20 -15
50 -24 66 -10 17 -21 47 -25 68 -4 20 -15 47 -25 60 -9 12 -20 36 -24 52 -4
17 -18 44 -30 60 -13 17 -31 53 -41 80 -10 28 -28 68 -41 90 -12 22 -25 56
-29 75 -4 19 -18 55 -31 80 -13 25 -24 56 -24 70 0 14 -9 36 -20 50 -11 14
-20 31 -20 38 0 7 -18 29 -39 50 -28 26 -44 53 -56 92 -12 42 -23 60 -48 76
-32 21 -57 74 -57 121 0 11 -13 34 -30 53 -35 39 -70 108 -70 137 0 11 -8 31
-19 44 -10 13 -22 35 -26 49 -4 14 -20 37 -36 52 -19 17 -29 37 -29 55 0 15
-9 57 -20 91 -11 35 -20 75 -20 88 0 14 -11 46 -25 72 -14 26 -25 56 -25 68 0
11 -9 39 -20 62 -11 23 -23 63 -27 89 -3 27 -14 64 -23 83 -9 19 -20 54 -24
77 -3 23 -22 71 -41 106 -19 36 -41 93 -50 127 -9 34 -25 78 -36 98 -10 20
-19 47 -19 60 0 13 -18 54 -40 92 -43 74 -46 87 -28 137 10 28 9 38 -10 72
-28 49 -28 63 2 114 19 32 26 63 31 132 4 50 13 115 22 146 10 37 13 81 10
135 -3 43 -10 160 -15 259 -6 99 -15 202 -21 228 -6 27 -11 133 -11 240 1 182
-7 331 -30 532 -5 50 -10 234 -10 410 -1 294 1 326 20 399 19 73 21 113 26
540 8 713 20 1046 40 1098 12 33 77 134 95 148 28 22 148 174 159 201 7 19 25
61 40 94 16 34 33 97 40 145 11 79 11 89 -10 150 -24 71 -48 102 -127 161 -80
60 -151 94 -256 125 -79 23 -99 25 -111 14 -23 -18 -20 -31 16 -81 32 -45 64
-143 74 -235 12 -103 -29 -244 -71 -244 -7 0 -32 31 -55 69 -35 59 -52 76
-110 111 -76 46 -90 69 -90 149 0 67 -33 208 -61 262 -13 27 -48 66 -78 90
-112 92 -133 98 -152 44 -20 -55 -73 -58 -196 -11 -23 8 -79 18 -125 22 -46 4
-116 17 -157 30 -42 14 -98 24 -130 24 -117 0 -128 -15 -113 -157 6 -54 14
-144 18 -200 6 -100 6 -102 -19 -127 -24 -24 -33 -26 -106 -26 -100 0 -128 19
-142 95 -10 51 -98 245 -128 279 -9 10 -43 31 -77 47 -49 23 -75 29 -131 29
-58 0 -75 4 -102 24 -18 14 -51 28 -72 31 -22 4 -54 14 -72 23 -18 9 -57 18
-88 20 -62 5 -89 -11 -89 -54 0 -29 -32 -64 -60 -64 -87 0 -140 -120 -106
-242 8 -29 17 -101 21 -159 5 -94 4 -108 -13 -129 -22 -27 -48 -29 -172 -12
-141 20 -152 38 -111 186 11 44 21 101 21 127 0 44 -4 53 -59 115 -71 80 -217
168 -345 209 -108 34 -204 30 -247 -11 l-29 -28 -79 13 c-92 15 -131 9 -187
-30 -63 -43 -78 -72 -65 -124 6 -24 11 -62 11 -84 0 -21 9 -68 20 -103 12 -35
24 -106 27 -162 6 -96 7 -99 45 -143 21 -25 48 -63 59 -85 16 -30 42 -54 114
-100 102 -66 113 -81 141 -189 12 -46 14 -82 9 -129 -23 -214 -33 -335 -29
-341 2 -3 6 -61 9 -128 3 -67 10 -134 16 -148 7 -19 6 -41 -2 -74 -10 -37 -10
-57 -1 -87 7 -22 12 -80 12 -129 0 -91 11 -172 35 -253 29 -101 36 -231 36
-741 1 -480 0 -519 -17 -550 -24 -44 -30 -250 -26 -829 1 -228 1 -442 0 -475
-2 -68 -3 -64 9 -460 4 -159 12 -297 18 -305 5 -8 10 -37 11 -65 1 -27 7 -77
14 -110 18 -92 10 -137 -37 -188 -21 -23 -44 -58 -52 -77 -7 -19 -20 -51 -28
-70 -23 -51 -63 -168 -77 -225 -35 -135 -48 -205 -42 -220 6 -17 -17 -121 -34
-153 -11 -22 -40 -117 -40 -134 -1 -7 -9 -31 -20 -53 -11 -22 -19 -50 -20 -62
0 -13 -11 -51 -24 -85 -13 -35 -29 -88 -35 -118 -16 -81 -30 -139 -48 -190 -8
-25 -19 -67 -23 -95 -27 -157 -77 -263 -116 -248 -17 6 -80 133 -89 182 -4 19
-18 54 -31 79 -13 25 -24 55 -24 67 0 12 -9 34 -20 48 -11 14 -20 30 -20 36 0
6 -18 29 -40 51 -27 27 -44 57 -55 94 -11 36 -26 64 -46 80 -37 31 -59 72 -59
109 0 15 -10 37 -22 49 -43 43 -69 90 -75 136 -4 31 -14 55 -30 69 -12 12 -23
31 -23 41 0 11 -7 25 -15 32 -12 10 -18 6 -36 -24 -11 -20 -23 -36 -25 -36 -2
0 -13 17 -24 38 -11 20 -26 45 -33 55 -16 23 8 41 35 26 42 -22 47 22 14 106
-8 22 -15 61 -16 87 0 37 -4 50 -20 58 -12 6 -26 32 -36 68 -8 31 -22 71 -30
89 -8 17 -14 51 -14 75 0 24 -7 54 -16 66 -9 13 -19 49 -24 82 -5 33 -17 72
-28 87 -26 36 -72 150 -72 177 0 12 -11 42 -25 68 -14 26 -25 60 -25 76 0 16
-9 37 -20 47 -27 25 -70 99 -70 123 0 10 9 27 20 37 26 24 25 41 -5 77 -32 38
-32 78 -1 107 21 20 25 35 31 119 3 54 13 121 22 150 13 43 14 76 8 180 -4 70
-9 172 -10 227 -2 55 -10 148 -19 206 -12 74 -16 152 -14 260 3 165 -6 369
-22 514 -5 50 -11 245 -12 435 -3 317 -1 348 15 385 17 36 19 77 23 390 3 193
6 481 9 640 3 292 13 426 34 478 6 16 11 42 11 58 0 16 11 52 25 79 14 27 25
55 25 63 0 14 103 153 150 202 16 17 36 50 45 74 8 24 29 69 45 99 17 31 30
65 30 76 0 11 5 45 12 76 10 51 9 64 -11 127 -24 73 -44 99 -141 175 -90 71
-239 130 -335 132 -44 1 -50 -1 -47 -18 2 -11 19 -37 37 -58 30 -35 40 -63 61
-169 9 -42 -16 -54 -73 -36 -27 8 -68 18 -93 22 -86 14 -108 29 -140 97 -17
35 -30 77 -30 93 0 17 -9 44 -20 60 -11 17 -20 37 -20 46 0 16 -99 109 -169
158 -42 30 -67 19 -64 -28 2 -22 -3 -33 -18 -42 -27 -14 -99 -4 -148 21 -24
13 -74 22 -147 28 -72 7 -123 16 -145 28 -50 26 -210 32 -245 9 -22 -14 -25
-22 -21 -53 18 -129 28 -228 36 -382 l9 -175 -23 -24 c-21 -22 -35 -25 -147
-32 -106 -6 -125 -5 -135 9 -18 23 -16 37 12 90 45 85 30 182 -56 346 -54 103
-67 120 -98 133 -20 8 -44 22 -54 31 -14 12 -38 16 -103 15 -78 -1 -86 1 -100
22 -12 19 -28 25 -72 31 -33 3 -65 14 -77 25 -15 13 -38 18 -93 20 -40 1 -77
-2 -82 -7 -5 -5 -13 -31 -17 -59 l-8 -50 -47 -5 c-73 -9 -97 -40 -113 -147 -5
-29 -2 -56 9 -85 13 -34 16 -72 14 -178 l-3 -135 -29 -3 c-44 -5 -249 28 -270
43 -21 16 -19 38 12 127 12 31 23 83 27 114 3 32 8 61 11 66 3 4 -20 32 -50
62 -31 30 -56 58 -56 64 0 9 -98 75 -155 104 -16 8 -43 23 -60 32 -16 9 -35
16 -41 16 -7 0 -31 9 -55 20 -33 14 -66 20 -128 20 -83 0 -84 0 -117 -35 -35
-37 -52 -43 -72 -23 -8 8 -44 12 -95 13 -78 0 -84 -2 -129 -34 -68 -49 -83
-75 -70 -120 6 -20 15 -67 20 -106 5 -38 17 -88 25 -110 11 -26 16 -73 17
-137 l0 -97 45 -45 c24 -25 50 -60 58 -78 20 -47 128 -129 194 -147 47 -13
113 -57 113 -75 0 -8 -6 -25 -12 -38 -17 -31 -16 -225 1 -338 7 -47 14 -107
16 -135 1 -27 8 -63 15 -80 7 -16 16 -62 20 -100 5 -39 16 -91 25 -115 29 -79
29 -79 4 -89 -13 -5 -36 -12 -51 -15 l-28 -6 0 -194 c0 -167 3 -199 19 -237
24 -55 45 -287 30 -327 -6 -17 -9 -195 -8 -482 l2 -455 -23 -45 c-23 -44 -23
-48 -15 -255 9 -235 10 -272 7 -400 -2 -49 -1 -119 1 -155 2 -36 0 -93 -5
-128 -6 -49 -5 -71 8 -100 12 -30 16 -95 19 -337 3 -195 9 -321 18 -360 8 -36
10 -76 6 -100 -14 -72 -9 -149 11 -208 14 -38 20 -80 19 -129 -1 -40 2 -94 6
-121 8 -55 0 -69 -57 -98 -21 -10 -45 -33 -54 -50 -15 -31 -23 -51 -79 -208
-15 -41 -32 -83 -40 -95 -7 -12 -15 -46 -18 -77 -3 -31 -13 -71 -21 -88 -12
-23 -15 -44 -10 -80 5 -39 0 -66 -29 -152 -19 -57 -38 -120 -42 -139 -4 -19
-16 -51 -26 -70 -11 -19 -19 -50 -19 -69 0 -18 -9 -48 -20 -66 -11 -18 -23
-54 -26 -81 -3 -27 -14 -75 -25 -107 -10 -31 -19 -70 -19 -85 0 -15 -8 -43
-18 -62 -11 -19 -22 -57 -25 -85 -7 -64 -52 -200 -77 -235 -10 -14 -22 -38
-25 -53 -9 -34 -60 -90 -77 -85 -7 3 -21 27 -31 54 -10 27 -24 56 -31 64 -7 8
-18 39 -24 68 -7 30 -21 65 -32 79 -11 14 -20 41 -20 59 0 18 -5 36 -10 39 -6
4 -20 25 -31 47 -12 23 -36 55 -54 72 -22 21 -36 48 -44 83 -10 42 -19 57 -47
73 -34 22 -54 66 -54 122 0 16 -9 33 -21 42 -37 26 -79 98 -79 137 0 25 -7 42
-24 58 -14 13 -26 38 -28 55 -4 46 -35 48 -43 2 -8 -42 1 -75 27 -96 12 -9 22
-33 25 -60 3 -25 14 -54 24 -66 24 -26 69 -136 69 -168 0 -16 11 -32 29 -45
18 -13 32 -34 36 -54 4 -17 13 -39 20 -47 7 -8 15 -42 17 -76 3 -41 11 -70 26
-91 18 -25 22 -45 22 -106 0 -58 4 -80 17 -93 17 -17 23 -77 9 -91 -12 -12
-36 27 -36 58 0 14 -6 32 -14 38 -8 6 -24 40 -36 74 -12 34 -28 73 -35 87 -7
14 -16 43 -20 65 -11 63 -26 105 -51 143 -13 19 -29 53 -34 76 -6 22 -22 65
-35 94 -14 29 -25 66 -25 83 0 18 -19 63 -49 113 -45 76 -57 115 -64 200 -2
24 3 31 22 36 39 9 47 33 27 78 -10 22 -21 67 -25 101 -5 41 -14 68 -29 84
-11 12 -24 42 -28 67 -4 25 -15 61 -26 80 -10 19 -18 55 -18 80 0 27 -7 56
-17 70 -9 13 -20 51 -24 83 -4 33 -15 67 -24 78 -24 25 -65 124 -74 174 -4 22
-15 53 -25 68 -10 15 -22 47 -27 72 -4 24 -26 69 -49 102 -45 65 -50 92 -20
111 26 16 25 35 -5 80 -32 46 -32 79 -1 111 22 23 26 38 32 131 3 58 13 120
20 139 17 41 18 174 3 291 -7 47 -11 101 -9 120 5 69 3 96 -14 200 -12 74 -16
150 -14 260 3 181 -7 379 -24 500 -8 55 -13 211 -13 445 0 338 1 362 19 395
19 33 20 67 27 665 4 381 11 642 17 660 6 17 13 93 17 170 5 124 8 144 29 175
13 19 28 42 32 52 8 14 42 54 153 180 19 21 44 67 56 102 12 35 30 74 39 87 9
13 16 33 16 46 0 12 7 48 15 80 14 55 14 62 -6 130 -22 75 -63 128 -139 185
-53 39 -192 108 -218 108 -13 0 -35 6 -50 14 -35 18 -132 31 -132 18 0 -5 11
-30 25 -53 25 -44 31 -74 17 -82 -4 -3 -25 2 -47 10 -22 8 -71 24 -110 34 -78
23 -114 51 -143 113 -30 63 -169 176 -216 176 -10 0 -16 -13 -18 -42 l-3 -43
-65 1 c-48 1 -75 7 -102 23 -29 17 -61 24 -151 31 -72 5 -127 15 -147 25 -43
22 -166 31 -213 16 -45 -15 -54 -42 -39 -115 22 -99 43 -490 28 -514 -16 -27
-65 -39 -172 -45 -147 -7 -156 2 -108 108 22 48 25 65 19 108 -4 29 -8 64 -10
79 -2 15 -32 82 -67 149 -52 101 -68 124 -92 132 -16 5 -45 21 -65 34 -33 23
-43 25 -113 19 -70 -5 -77 -3 -90 16 -10 15 -30 23 -73 29 -44 6 -64 14 -74
28 -12 18 -24 21 -92 21 -76 0 -80 -1 -89 -26 -6 -14 -10 -38 -10 -53 0 -39
-22 -56 -50 -41 -19 10 -27 8 -58 -17 -19 -16 -41 -45 -48 -64 -17 -46 -16
-139 1 -169 10 -18 14 -62 15 -158 0 -131 0 -133 -24 -142 -16 -6 -51 -4 -102
5 -44 8 -92 14 -107 15 -15 0 -42 7 -59 16 -34 18 -34 30 0 144 10 36 22 92
26 126 l7 61 -41 39 c-23 21 -48 51 -55 66 -8 14 -41 41 -72 58 -32 18 -80 44
-108 59 -27 16 -67 34 -88 41 -22 7 -51 18 -65 26 -25 13 -163 18 -203 7z
m869 -889 c55 -7 72 -24 23 -24 -17 0 -33 -4 -36 -10 -8 -13 -83 -13 -126 1
-19 6 -40 13 -47 15 -7 2 -10 8 -7 14 7 11 112 13 193 4z m817 -99 c0 -16 -8
-21 -36 -23 -19 -2 -48 2 -65 8 -28 11 -28 12 -9 26 12 9 37 14 65 12 37 -3
45 -6 45 -23z m3452 -1097 c5 -50 -10 -83 -27 -58 -11 17 -14 103 -3 114 12
12 25 -12 30 -56z m7902 -867 c7 -12 7 -30 0 -52 -5 -19 -7 -66 -4 -105 6 -67
-8 -164 -22 -150 -10 10 -42 110 -43 133 0 12 5 25 11 29 8 4 9 26 5 65 -7 62
4 99 29 99 8 0 19 -8 24 -19z m-9527 -3265 c11 -26 5 -56 -12 -56 -6 0 -15 12
-21 27 -18 49 11 75 33 29z m4934 -27 c8 -16 14 -47 14 -70 0 -29 7 -50 25
-71 19 -22 23 -36 19 -56 -16 -67 -37 -56 -87 46 -50 98 -61 141 -47 177 9 23
12 24 35 13 15 -7 33 -24 41 -39z m-4878 -147 c-2 -25 3 -39 20 -52 21 -18 30
-64 14 -74 -15 -9 -58 59 -71 113 -11 44 -11 55 0 62 22 13 41 -11 37 -49z
m4973 -133 c15 -15 19 -28 14 -47 -9 -35 -10 -36 -33 -23 -24 13 -36 43 -27
71 8 25 20 25 46 -1z m-4854 -104 c25 -45 29 -88 9 -123 -12 -23 -13 -21 -30
35 -9 32 -21 66 -27 75 -5 10 -9 27 -9 39 0 33 32 19 57 -26z m6403 27 c0 -5
-7 -17 -15 -28 -8 -10 -15 -32 -15 -48 0 -44 -21 -104 -43 -123 -19 -18 -19
-17 -14 17 3 19 10 55 17 80 6 25 13 54 14 66 2 11 6 26 10 32 8 13 46 16 46
4z m-1497 -30 c36 -40 59 -148 38 -181 -15 -24 -31 -2 -31 43 0 33 -6 48 -26
67 -34 31 -45 54 -38 73 8 21 37 20 57 -2z m5165 -903 c-1 -13 -7 -23 -13 -22
-13 3 -18 30 -11 50 10 24 29 1 24 -28z m61 -83 c7 -8 9 -25 6 -38 -4 -17 0
-29 14 -42 24 -22 27 -58 7 -75 -18 -16 -37 8 -40 52 -2 19 -13 44 -24 55 -32
32 -28 62 8 62 10 0 23 -6 29 -14z m715 -2279 c15 -36 17 -52 10 -65 -36 -57
-224 -106 -224 -57 0 7 35 49 77 94 91 97 108 100 137 28z m-11047 -22 c43 -8
92 -15 108 -15 42 0 71 -23 79 -61 12 -61 20 -60 -383 -52 -201 3 -377 9 -391
13 l-25 7 25 11 c56 23 168 55 258 74 53 10 103 23 111 28 24 14 131 12 218
-5z m4783 -135 c13 -9 13 -11 0 -20 -20 -13 -87 -13 -95 0 -13 21 67 38 95 20z
m325 -15 c0 -15 -8 -21 -31 -23 -40 -4 -96 10 -101 25 -5 15 21 21 82 20 43
-2 50 -5 50 -22z m4834 -21 c15 -9 33 -25 40 -36 16 -25 26 -109 17 -143 l-7
-26 -158 3 c-116 2 -162 7 -175 17 -22 18 -10 32 63 73 31 17 76 47 100 67 40
32 80 60 89 61 2 0 16 -7 31 -16z m-779 -154 c13 -9 12 -12 -4 -25 -11 -8 -27
-15 -36 -15 -9 0 -25 7 -36 15 -16 13 -17 16 -4 25 8 5 26 10 40 10 14 0 32
-5 40 -10z"/>
<path d="M9407 6643 c-13 -27 -32 -74 -42 -107 l-19 -58 37 -72 c66 -131 117
-250 117 -275 0 -10 16 -43 35 -75 19 -32 35 -63 35 -69 0 -9 13 -39 71 -162
10 -22 20 -53 21 -70 3 -50 13 -55 108 -55 115 0 126 4 100 37 -11 14 -20 30
-20 35 0 5 -14 39 -31 76 -17 37 -39 85 -49 107 -10 22 -30 66 -44 97 -14 31
-26 60 -26 63 0 7 -44 107 -66 150 -9 16 -31 70 -51 119 -19 50 -43 106 -53
126 -10 19 -32 65 -49 102 -17 36 -35 69 -40 72 -5 4 -21 -15 -34 -41z"/>
<path d="M14576 6623 c-15 -38 -35 -85 -43 -105 -15 -36 -15 -37 25 -110 22
-40 42 -85 46 -100 3 -15 13 -33 21 -41 7 -8 17 -28 21 -43 4 -16 13 -38 20
-49 8 -11 14 -28 14 -38 0 -10 16 -48 35 -86 19 -37 35 -71 35 -76 0 -10 43
-106 70 -157 11 -20 20 -52 20 -71 0 -43 9 -47 110 -47 101 0 114 5 96 33 -13
21 -85 183 -148 332 -28 67 -43 102 -88 198 -11 23 -33 76 -50 117 -85 208
-133 309 -146 309 -6 1 -23 -29 -38 -66z"/>
<path d="M4147 6645 c-24 -24 -21 -40 16 -82 32 -36 51 -62 163 -223 25 -36
78 -112 119 -170 41 -58 104 -150 142 -205 37 -55 86 -123 108 -152 22 -29 48
-62 57 -75 29 -38 38 -6 38 139 l0 132 -29 20 c-26 19 -68 75 -136 185 -11 18
-34 50 -51 72 -17 21 -49 66 -70 99 -21 33 -42 62 -45 65 -3 3 -29 39 -57 80
-90 131 -81 124 -165 128 -59 3 -77 1 -90 -13z"/>
<path d="M6102 6652 c-11 -7 -13 -75 -12 -338 1 -363 8 -442 46 -491 25 -33
85 -83 98 -83 4 0 19 -9 33 -20 17 -13 41 -20 69 -20 24 0 44 2 44 5 0 2 -20
24 -44 48 -67 67 -69 85 -73 516 -1 206 -5 377 -8 380 -10 10 -139 12 -153 3z"/>
<path d="M7142 6652 c-10 -7 -12 -109 -13 -478 l0 -469 83 -3 c101 -3 111 2
98 49 -7 21 -10 196 -9 461 1 234 -2 431 -5 437 -8 13 -134 15 -154 3z"/>
<path d="M8033 6653 c-9 -3 -13 -28 -13 -74 0 -68 10 -86 29 -51 5 9 32 39 60
67 42 42 47 51 33 57 -20 8 -91 9 -109 1z"/>
<path d="M8363 6652 c-9 -6 -13 -121 -13 -477 l-2 -470 92 0 91 0 -1 470 c0
358 -3 471 -13 477 -16 10 -138 10 -154 0z"/>
<path d="M8738 6654 c-24 -7 -23 -10 20 -52 21 -20 48 -50 61 -67 18 -24 24
-27 31 -15 12 19 13 101 1 119 -9 14 -83 23 -113 15z"/>
<path d="M11631 6652 c-11 -8 -13 -85 -12 -438 1 -266 -2 -442 -9 -463 -13
-47 -3 -52 98 -49 l84 3 -2 470 c0 258 -3 471 -6 474 -10 10 -139 12 -153 3z"/>
<path d="M13250 6650 c-13 -8 -13 -14 -1 -42 7 -18 24 -62 38 -98 39 -104 69
-181 93 -240 12 -30 31 -84 42 -120 12 -36 26 -72 33 -80 7 -8 19 -35 27 -60
9 -25 30 -83 47 -130 18 -47 38 -105 45 -129 19 -70 66 -84 80 -24 4 15 18 51
32 79 32 65 34 117 6 147 -19 21 -37 65 -81 197 -10 30 -26 69 -35 85 -9 17
-16 35 -16 41 0 6 -10 33 -22 60 -12 27 -28 67 -34 89 -35 115 -74 210 -90
222 -21 15 -141 18 -164 3z"/>
<path d="M15325 6644 c-19 -20 -12 -51 19 -80 13 -11 51 -63 86 -115 34 -52
72 -106 84 -120 30 -38 56 -74 96 -134 62 -93 157 -229 186 -267 16 -21 54
-74 84 -118 81 -118 90 -111 90 71 0 117 -1 120 -27 147 -15 15 -45 54 -67 87
-21 33 -44 64 -51 70 -6 5 -27 35 -46 65 -18 30 -39 60 -45 65 -7 6 -42 55
-78 110 -78 117 -151 215 -168 227 -25 15 -145 9 -163 -8z"/>
<path d="M16367 6648 c-15 -12 -17 -55 -17 -478 l-1 -465 83 -3 c101 -3 111 2
98 49 -7 21 -10 199 -9 463 1 350 -1 430 -12 437 -21 13 -123 11 -142 -3z"/>
<path d="M16952 6647 c-7 -9 -11 -159 -12 -460 0 -245 -3 -453 -6 -461 -8 -21
25 -28 114 -24 l74 3 -2 470 c0 356 -4 471 -13 477 -21 13 -143 9 -155 -5z"/>
<path d="M17923 6652 c-9 -6 -13 -121 -13 -477 l-2 -470 84 -3 c98 -3 113 4
98 42 -6 17 -9 185 -8 462 1 364 -1 437 -13 445 -17 11 -129 12 -146 1z"/>
<path d="M18448 6653 c-10 -2 -18 -6 -18 -8 0 -10 136 -133 142 -129 13 8 9
119 -4 132 -12 12 -84 15 -120 5z"/>
<path d="M2630 6616 c0 -15 79 -116 91 -116 12 0 21 57 14 89 -6 30 -26 41
-77 41 -17 0 -28 -5 -28 -14z"/>
<path d="M5611 6621 c-12 -8 -12 -14 -2 -38 12 -28 55 -83 66 -83 3 0 5 29 5
65 0 64 0 65 -27 65 -16 0 -34 -4 -42 -9z"/>
<path d="M11130 6612 c0 -20 67 -112 81 -112 13 0 22 67 12 97 -8 24 -16 28
-51 31 -36 3 -42 0 -42 -16z"/>
<path d="M2139 6567 c-65 -49 -117 -113 -162 -200 -30 -60 -31 -67 -32 -187 0
-116 2 -129 27 -180 50 -100 101 -163 168 -207 35 -23 67 -40 71 -38 4 3 -2
22 -12 42 -10 21 -19 42 -19 49 0 6 -10 33 -22 60 -22 46 -23 62 -23 269 0
215 1 222 28 302 16 45 35 87 43 93 17 15 19 40 2 39 -7 0 -38 -19 -69 -42z"/>
<path d="M3121 6580 c-63 -42 -78 -57 -132 -134 -118 -167 -119 -365 -2 -534
27 -39 61 -80 74 -90 32 -24 98 -62 109 -62 9 0 -26 97 -41 117 -25 30 -37
338 -20 504 10 87 41 170 75 198 9 8 16 17 16 22 0 17 -35 7 -79 -21z"/>
<path d="M3610 6598 c0 -7 11 -23 24 -37 14 -16 33 -60 46 -111 21 -74 23
-108 23 -265 0 -155 -3 -192 -23 -265 -12 -47 -34 -102 -48 -123 -26 -39 -23
-60 6 -39 9 7 30 20 46 30 50 29 96 74 117 111 11 20 33 60 49 89 59 103 61
282 5 392 -15 30 -31 57 -35 60 -4 3 -13 16 -20 30 -20 37 -49 67 -106 105
-52 36 -84 44 -84 23z"/>
<path d="M10650 6584 c-38 -26 -150 -143 -150 -157 0 -4 -9 -21 -21 -36 -46
-63 -63 -230 -34 -342 23 -87 115 -214 185 -256 30 -18 57 -33 62 -33 8 0 -13
66 -39 120 -45 93 -40 520 6 627 13 28 31 59 42 69 44 39 4 46 -51 8z"/>
<path d="M12233 6566 c-206 -150 -262 -433 -125 -637 9 -14 27 -40 39 -58 21
-33 127 -111 150 -111 13 0 -10 78 -33 115 -31 48 -43 283 -25 486 9 93 43
196 70 214 15 9 14 35 -2 35 -7 0 -41 -20 -74 -44z"/>
<path d="M12740 6601 c0 -5 11 -22 24 -38 14 -17 34 -65 47 -114 18 -72 22
-110 21 -264 0 -152 -3 -193 -22 -265 -12 -47 -31 -100 -42 -118 -11 -18 -18
-35 -15 -38 5 -5 89 38 115 58 20 17 100 135 130 192 25 47 27 59 26 171 -1
112 -3 124 -30 181 -41 84 -115 175 -173 213 -48 31 -81 40 -81 22z"/>
<path d="M5125 6509 c-42 -79 -23 -208 40 -277 43 -47 113 -83 245 -123 58
-18 124 -43 147 -56 87 -50 121 -134 88 -219 -9 -25 -15 -48 -12 -50 11 -12
46 18 77 65 57 90 58 218 1 289 -57 73 -110 102 -281 157 -63 21 -133 48 -156
61 -49 28 -94 93 -101 146 -7 46 -26 50 -48 7z"/>
<path d="M18357 6324 c-8 -16 -31 -45 -51 -63 -20 -19 -36 -40 -36 -45 0 -6
16 -27 36 -46 20 -19 42 -47 50 -63 8 -15 19 -25 24 -22 12 8 13 235 1 254 -7
11 -12 7 -24 -15z"/>
<path d="M11144 6032 c-7 -4 -14 -47 -16 -97 -6 -98 -33 -176 -72 -207 -20
-17 -20 -18 -2 -18 11 0 39 9 63 21 24 11 71 23 106 26 34 3 65 11 69 17 13
19 9 241 -4 254 -13 13 -126 16 -144 4z"/>
<path d="M7815 5902 c-7 -33 -63 -115 -96 -141 -13 -10 -42 -24 -63 -31 -61
-20 -23 -31 91 -28 l98 3 3 90 c3 94 -2 135 -17 135 -5 0 -12 -13 -16 -28z"/>
<path d="M17626 5887 c-24 -63 -78 -122 -139 -151 -66 -31 -51 -38 74 -34 l94
3 3 104 c1 57 -1 108 -6 113 -5 5 -16 -10 -26 -35z"/>
<path d="M18596 5876 c-32 -66 -104 -132 -159 -147 -67 -18 -28 -30 89 -27
l109 3 3 104 c1 57 -1 108 -6 113 -5 5 -20 -14 -36 -46z"/>
<path d="M5075 5880 c-4 -11 -3 -50 0 -85 l7 -65 50 0 c27 0 58 -5 69 -11 11
-6 25 -8 32 -5 7 3 3 8 -10 11 -20 6 -123 145 -123 166 0 17 -19 9 -25 -11z"/>
<path d="M2718 5867 c-8 -7 -34 -38 -58 -71 -24 -32 -55 -62 -69 -67 -18 -7
-21 -13 -13 -21 9 -9 20 -8 47 5 20 9 53 17 74 17 46 0 51 9 51 85 0 58 -8 72
-32 52z"/>
</g>
</svg>
